<mxfile host="65bd71144e">
    <diagram id="cJL5rb0GxR1OTlOUeZg0" name="PÃ¡gina-1">
        <mxGraphModel dx="662" dy="461" grid="1" gridSize="10" guides="1" tooltips="1" connect="1" arrows="1" fold="1" page="1" pageScale="1" pageWidth="827" pageHeight="1169" math="0" shadow="0">
            <root>
                <mxCell id="0"/>
                <mxCell id="1" parent="0"/>
                <mxCell id="2" value="INICIO" style="ellipse;whiteSpace=wrap;html=1;fillColor=#f0a30a;fontColor=#000000;strokeColor=#BD7000;" vertex="1" parent="1">
                    <mxGeometry x="280" y="30" width="100" height="50" as="geometry"/>
                </mxCell>
                <mxCell id="3" value="X,Y" style="shape=parallelogram;perimeter=parallelogramPerimeter;whiteSpace=wrap;html=1;fixedSize=1;fillColor=#fa6800;fontColor=#000000;strokeColor=#C73500;" vertex="1" parent="1">
                    <mxGeometry x="270" y="120" width="110" height="30" as="geometry"/>
                </mxCell>
                <mxCell id="6" value="S= X+Y&lt;br&gt;R= X - Y&lt;br&gt;M= X * Y&lt;br&gt;D= X / Y&lt;br&gt;DE= X // Y&lt;br&gt;MOD = X % Y&lt;br&gt;P= X * + Y&amp;nbsp;" style="rounded=0;whiteSpace=wrap;html=1;fillColor=#d80073;fontColor=#ffffff;strokeColor=#A50040;" vertex="1" parent="1">
                    <mxGeometry x="260" y="170" width="130" height="110" as="geometry"/>
                </mxCell>
                <mxCell id="7" value="S,R,M,D,DE,M, P" style="shape=document;whiteSpace=wrap;html=1;boundedLbl=1;" vertex="1" parent="1">
                    <mxGeometry x="270" y="300" width="110" height="50" as="geometry"/>
                </mxCell>
                <mxCell id="8" value="FIN" style="rounded=1;whiteSpace=wrap;html=1;fillColor=#1ba1e2;fontColor=#ffffff;strokeColor=#006EAF;" vertex="1" parent="1">
                    <mxGeometry x="270" y="370" width="110" height="50" as="geometry"/>
                </mxCell>
            </root>
        </mxGraphModel>
    </diagram>
</mxfile>